# xmcd
#
# Track frame offsets:
#	150
#	12815
#	26264
#	34689
#	49685
#	61875
#	73327
#	82005
#	94488
#	104909
#	113858
#	127471
#
# Disc length: 1855 seconds
#
# Revision: 0
# Processed by: cddbd v1.5PL3 Copyright (c) Steve Scherf et al.
# Submitted via: dBpowerAMP V4.0
#
DISCID=ad073d0c
DTITLE=Ralph Stanley - Best Of The Best
DYEAR=2002
DGENRE=Bluegrass
TTITLE0=I'm A Man Of Constant Sorrow
TTITLE1=Oh Death
TTITLE2=Shout Little Lulie
TTITLE3=I Only Exist
TTITLE4=Medicine Springs
TTITLE5=Goung Up Home To Live In Green Pastures
TTITLE6=Hills Of -Home
TTITLE7=Little Maggie
TTITLE8=Clinch Mountain Backstep
TTITLE9=Little Bridie
TTITLE10=Hemlocks And Primroses
TTITLE11=Little Willie
EXTD=
EXTT0=
EXTT1=
EXTT2=
EXTT3=
EXTT4=
EXTT5=
EXTT6=
EXTT7=
EXTT8=
EXTT9=
EXTT10=
EXTT11=
PLAYORDER=
